<?xml version="1.0" encoding="UTF-8" standalone="no"?>
<!-- Created with Inkscape (http://www.inkscape.org/) -->

<svg
   xmlns:dc="http://purl.org/dc/elements/1.1/"
   xmlns:cc="http://creativecommons.org/ns#"
   xmlns:rdf="http://www.w3.org/1999/02/22-rdf-syntax-ns#"
   xmlns:svg="http://www.w3.org/2000/svg"
   xmlns="http://www.w3.org/2000/svg"
   xmlns:sodipodi="http://sodipodi.sourceforge.net/DTD/sodipodi-0.dtd"
   xmlns:inkscape="http://www.inkscape.org/namespaces/inkscape"
   id="svg2"
   sodipodi:docname="Tornio-Fishing2.svg"
   xml:space="preserve"
   sodipodi:version="0.32"
   version="1.0"
   inkscape:output_extension="org.inkscape.output.svg.inkscape"
   inkscape:version="0.92.4 (5da689c313, 2019-01-14)"
   viewBox="-0.628 -0.612 491.673 312.02011"
   width="491.673"
   height="312.02011"><defs
   id="defs3769" /><sodipodi:namedview
   id="base"
   bordercolor="#666666"
   inkscape:pageshadow="2"
   guidetolerance="10.0"
   pagecolor="#ffffff"
   gridtolerance="10.0"
   inkscape:zoom="0.5825"
   objecttolerance="10.0"
   borderopacity="1.0"
   inkscape:current-layer="svg2"
   inkscape:cx="-52.455111"
   inkscape:cy="135.40578"
   inkscape:window-y="0"
   inkscape:window-x="0"
   inkscape:window-height="999"
   showgrid="false"
   inkscape:pageopacity="0.0"
   inkscape:window-width="1920"
   inkscape:window-maximized="1"
   inkscape:snap-text-baseline="false" />
	<rect
   style="opacity:1;fill:#fdffff;fill-opacity:0.99137932;fill-rule:nonzero;stroke:#fffff7;stroke-width:0;stroke-linecap:round;stroke-linejoin:round;stroke-miterlimit:4;stroke-dasharray:none;stroke-opacity:1"
   id="rect4546"
   width="360.51501"
   height="219.74249"
   x="62.891315"
   y="43.596951"
   ry="28.046003" /><path
   id="path16"
   sodipodi:nodetypes="ccccccccsccccccscccccccsccscccccccccsccccccccccccccssccccsssc"
   d="m 56.065,92.405291 c 0.73,3.8236 6.778,20.715479 9.472,24.583449 2.218,2.81778 4.872,5.61337 7.566,7.83949 4.278,3.39465 8.753,6.54524 13.824,9.35562 4.438,2.81778 9.463,5.30275 14.376,7.52887 5.229,2.58112 11.448,4.80723 17.47,6.56003 4.592,1.64185 9.472,3.04704 14.852,3.86797 6.03,1.40519 12.56,2.21133 19.06,2.79559 4.59,0.355 58.25,11.55216 42.87,-17.69802 l -15.53,-29.53121 15.28,10.96789 c 13.8,8.06876 64.6,15.42013 71.89,12.60975 l 54.27,45.32852 c 8.72,1.75279 17.91,3.6535 26.62,5.64296 -1.9,-0.58427 7.58,1.99685 17.4,4.57796 10.3,2.81039 17.26,5.01432 24.08,7.4771 13.31,4.80724 26.18,10.22092 38.86,16.43335 6.34,3.04705 13.29,6.67836 20.43,10.428 4.27,2.45539 8.84,5.28056 13.75,8.43855 l 14.17,10.073 c 7.13,5.0439 12.49,7.79512 14.27,18.16395 -2.69,0.58427 -0.38,0.12573 -2.92,0.70999 -0.79,0.23667 -1.9,0.57687 -3.16,0.81353 -6.34,1.4052 -10.93,2.23352 -15.2,3.40944 -3.02,0.82093 -6,1.61967 -9.01,2.4406 -6.98,2.34445 -13.8,4.21557 -20.3,6.56003 -2.53,0.82092 -5.21,1.67883 -7.9,2.85475 -1.11,0.46594 -2.75,1.03541 -3.86,1.62707 0,0.3476 -0.27,0.32541 -0.27,0.55468 0,0 -0.48,0.25885 -0.48,0.61385 -0.32,0.23666 -0.35,0.55468 -0.35,0.55468 0,0.82092 0.81,1.44956 1.45,1.67883 4.59,0.82093 9.5,1.3978 14.1,1.63446 7.29,0.93186 14.09,1.98206 20.91,3.15059 6.97,1.05759 13.79,2.83257 20.29,4.47442 l -75.46,13.78567 c -1.1,0 -2.19,0.25885 -3.3,0.25885 -1.9,0 -3.8,-0.25885 -5.71,-0.25885 -6.49,-0.58426 -12.66,-1.738 -18.36,-3.60912 -7.61,-2.58112 -14.13,-5.95358 -20.15,-9.82155 -5.39,-3.97891 -10.26,-8.00959 -14.38,-12.46183 -3.8,-4.21558 -6.51,-8.79354 -8.73,-13.47505 -2.38,-4.22297 -3.82,-9.01541 -4.61,-13.58598 -0.79,-3.63132 -1.1,-7.49189 -1.1,-11.24154 -25.36,-1.64185 -50.11,-3.88276 -74.84,-6.45648 -37.39,-4.80724 -74.26,-14.28119 -108.81,-27.88196 -9.5,-3.63131 -19.07,-7.25523 -28.27,-11.24154 -6.017,-2.45538 -12.825,-5.62076 -19.322,-9.25207 -5.705,-3.40205 -11.045,-6.70795 -15.958,-9.87332 -5.388,-3.63132 -10.61,-7.83949 -15.681,-12.41007 -9.033,-8.08355 -7.602,3.68309 -11.722,-6.75231 -1.585,-4.6889 -5.126,-20.71548 -11.733,-35.92853 -0.725,-1.66405 -0.481,-3.39465 -0.481,-5.3915 0,-2.22612 0.439,-4.79244 0.756,-7.01856 1.11,-4.57057 2.734,-8.800939 4.953,-13.023909 1.584,-2.46278 5.103,-2.86955 4.628,-0.88009 z m 379.75,138.026789 c -7.13,0 -8.66,2.33706 -8.66,7.72856 0,5.50983 0.81,9.86592 7.94,9.86592 7.13,0 9.39,-4.35609 9.39,-9.86592 0,-5.3915 -1.54,-7.72856 -8.67,-7.72856 z"
   inkscape:connector-curvature="0"
   style="stroke-width:0.85998517" /><path
   id="path20"
   d="m 151.775,260.40704 c 37.53,17.44656 79.24,29.34632 123.25,35.08542 l 30.66,2.52194 31.31,2.07081 33.12,0.46594 c -8.56,-4.16381 -16.3,-9.02281 -23.06,-14.55483 l -6.59,-6.00535 c -5.49,-5.50983 -9.87,-11.22674 -12.64,-17.49833 -1.27,-4.01589 -2.4,-7.67678 -3.36,-11.55955 l -1.55,-9.06718 -32.85,-3.26892 -25.72,-3.01007 -17.35,-2.35925 c -9.92,-1.61966 -19.67,-3.8162 -29.56,-6.2568 l -31.52,-9.10416 -24.39,-8.72698 -24.83,-9.78457 -23.23,-10.10259 -18.175,-9.65145 -22.973,-16.78094 -16.894,-18.17874 0.846,6.81887 c 3.746,22.00235 14.019,43.32428 29.606,62.53103 10.585,13.23839 24.262,24.42815 40.25,33.21429 l 8.54,4.74807 z"
   inkscape:connector-curvature="0"
   style="stroke-width:0.85998517" /><path
   id="path22"
   sodipodi:nodetypes="ccccscsccczzcccczzcccccc"
   d="M 60.887,111.39756 C 59.952,105.39961 58.677,99.564371 56.821,93.766101 L 24.834,2.0070906 24.3804,0.42063063 c -0.1807,-0.22032 -0.1898,-0.52621 -0.3705,-0.74653 -0.1204,-0.14688 -0.5328,-0.35517 -0.8202,-0.26364 -0.5237,-0.0493 -0.802,0.34803 -1.0802,0.74542 -0.2783,0.39745 -0.5565,0.79482 -0.3668,1.32095997 l -2.9103,42.4234704 -0.8153,9.61521 c -0.613,2.7882 0.0166,5.02837 -0.8186,7.49559 -0.848,2.50494 -1.5103,3.94859 -3.7112,6.03641 -2.108,1.99907 -4.3943,3.66607 -6.0403,4.90042 l -4.626,2.46352 -3.449,1.09457 c 3.688,3.02486 7.079,5.83524 10.596,8.94885 4.5819,3.81621 8.4773,8.76396 13.741,13.22359 5.2633,4.459639 7.941,4.378289 11.663,8.039179 3.721,3.6535 7.557,7.38095 10.169,11.3007 2.16,3.31329 2.546,2.93611 3.902,5.62076 0.936,2.17435 7.581,14.84327 9.043,11.32289 1.211,-4.11943 2.07,-8.37938 2.471,-12.45443 0.191,-3.3059 0.151,-6.59701 -0.117,-9.72541 0.167,-0.23666 0.047,-0.38458 0.047,-0.38458 z"
   inkscape:connector-curvature="0"
   style="stroke-width:0.85998517" /><path
   id="path24"
   sodipodi:nodetypes="ccsccccccccc"
   d="m 205.745,279.41411 c -7.13,-2.22612 -13.95,-4.68891 -20.44,-7.49929 -0.8,0.22927 -11.3,-7.78772 -12.09,-7.78772 -4.6,0 -4.86,0.30322 -9.3,-0.28843 -13.31,-0.81354 -21.56,5.25837 -34.55,3.49818 14.1,7.03336 27.41,14.65097 39.61,22.86025 10.62,6.67836 20.13,14.05931 29.64,21.211 2.69,0 4.91,-0.58426 6.81,-1.05759 8.4,-2.81038 16.01,-5.85743 23.61,-9.25947 7.29,-3.04705 13.63,-6.67836 19.02,-10.89394 -4.12,-1.17592 -8.4,-2.22612 -12.52,-3.16538 -10.3,-1.87852 -20.12,-4.45224 -29.79,-7.61761 z"
   inkscape:connector-curvature="0"
   style="stroke-width:0.85998517" />
<metadata
   id="metadata3766"><rdf:RDF><cc:Work><dc:format>image/svg+xml</dc:format><dc:type
         rdf:resource="http://purl.org/dc/dcmitype/StillImage" /><cc:license
         rdf:resource="http://creativecommons.org/licenses/publicdomain/" /><dc:publisher><cc:Agent
           rdf:about="http://openclipart.org/"><dc:title>Openclipart</dc:title></cc:Agent></dc:publisher><dc:title /><dc:date>2009-10-12T09:11:14</dc:date><dc:description>a simple fish</dc:description><dc:source>https://openclipart.org/detail/27770/fishblack-by-moreno</dc:source><dc:creator><cc:Agent><dc:title>Moreno</dc:title></cc:Agent></dc:creator><dc:subject><rdf:Bag><rdf:li>animal</rdf:li><rdf:li>fish</rdf:li><rdf:li>food</rdf:li><rdf:li>silhouette</rdf:li></rdf:Bag></dc:subject></cc:Work><cc:License
       rdf:about="http://creativecommons.org/licenses/publicdomain/"><cc:permits
         rdf:resource="http://creativecommons.org/ns#Reproduction" /><cc:permits
         rdf:resource="http://creativecommons.org/ns#Distribution" /><cc:permits
         rdf:resource="http://creativecommons.org/ns#DerivativeWorks" /></cc:License></rdf:RDF></metadata><flowRoot
   xml:space="preserve"
   id="flowRoot3790-3"
   style="font-style:normal;font-weight:normal;font-size:40px;line-height:125%;font-family:Sans;letter-spacing:0px;word-spacing:0px;fill:#000000;fill-opacity:1;stroke:none;stroke-width:1px;stroke-linecap:butt;stroke-linejoin:miter;stroke-opacity:1;image-rendering:auto"
   transform="matrix(1,0,0,0.73957455,9.050119,122.76012)"><flowRegion
     id="flowRegion3792-6"><rect
       id="rect3794-7"
       width="327.03864"
       height="109.01288"
       x="100.85837"
       y="19.115879" /></flowRegion><flowPara
     id="flowPara3796-5"
     style="font-size:96px" /></flowRoot><text
   xml:space="preserve"
   style="font-style:normal;font-weight:normal;font-size:34.39940643px;line-height:125%;font-family:Sans;letter-spacing:0px;word-spacing:0px;fill:#ffffff;fill-opacity:1;stroke:none;stroke-width:0.85998517px;stroke-linecap:butt;stroke-linejoin:miter;stroke-opacity:1"
   x="64.568527"
   y="269.90073"
   id="text3824"
   transform="scale(1.1628107,0.8599852)"><tspan
     sodipodi:role="line"
     id="tspan3822"
     x="64.568527"
     y="269.90073"
     style="font-size:82.55857849px;stroke-width:0.85998517px">Fishing</tspan></text>

<text
   xml:space="preserve"
   style="font-style:normal;font-weight:normal;font-size:36.62250137px;line-height:125%;font-family:Sans;letter-spacing:0px;word-spacing:0px;fill:#000000;fill-opacity:1;stroke:none;stroke-width:0.91556251px;stroke-linecap:butt;stroke-linejoin:miter;stroke-opacity:1"
   x="85.872986"
   y="137.86089"
   id="text4550"
   transform="scale(1.0922247,0.91556253)"><tspan
     sodipodi:role="line"
     id="tspan4548"
     x="85.872986"
     y="137.86089"
     style="font-size:87.89400482px;stroke-width:0.91556251px">Tornio</tspan></text>
</svg>